<?xml version="1.0" encoding="utf-8"?>
<!-- Generator: Adobe Illustrator 21.0.0, SVG Export Plug-In . SVG Version: 6.00 Build 0)  -->
<svg version="1.1"
	 id="svg6" viewport-fill="#eae4da" xmlns:cc="http://creativecommons.org/ns#" xmlns:dc="http://purl.org/dc/elements/1.1/" xmlns:rdf="http://www.w3.org/1999/02/22-rdf-syntax-ns#" xmlns:svg="http://www.w3.org/2000/svg"
	 xmlns="http://www.w3.org/2000/svg" xmlns:xlink="http://www.w3.org/1999/xlink" x="0px" y="0px" viewBox="0 0 1024 768"
	 style="enable-background:new 0 0 1024 768;" xml:space="preserve">
<style type="text/css">
	.st0{fill:#FFFFFF;}
</style>
<g id="logo-group">
	<rect class="st0" width="1024" height="768"/>
	<g id="icon" transform="">
		<g>
			<g>
				<path d="M772.4,376.8c-1.7,0-3.4-1.3-3.4-3.4c-1.7-66.3-28.9-128.2-76.7-174.6c-47.8-46.1-110.4-71.7-177-71.7
					c-2,0-3.4-1.3-3.4-3.4c0-2,1.3-3.4,3.4-3.4c68.3,0,132.9,26.2,181.7,74c48.8,47.4,76.7,111,78.7,179
					C775.8,375.4,774.4,376.8,772.4,376.8L772.4,376.8z"/>
				<g>
					<polygon points="798.7,349.8 793.3,345.5 772.1,371 748.2,347.8 743.5,352.5 772.4,380.8 					"/>
				</g>
			</g>
		</g>
		<g>
			<g>
				<path d="M519.1,645.3c0-1.7,1.3-3.4,3.4-3.4c66.3-1.7,128.2-28.9,174.6-76.7c46.4-47.8,72-110.7,72-177c0-2,1.3-3.4,3.4-3.4
					s3.4,1.3,3.4,3.4c0,68.3-26.2,132.9-74,181.7c-47.4,48.8-111.4,76.7-179.3,78.7C520.7,648.6,519.1,646.9,519.1,645.3
					L519.1,645.3z"/>
				<g>
					<polygon points="546,671.2 550.4,666.1 525.1,644.9 548.3,621 543.3,616.3 515,645.3 					"/>
				</g>
			</g>
		</g>
		<g>
			<g>
				<path d="M251.6,391.2c1.7,0,3.4,1.3,3.4,3.4c1.7,66.3,28.9,128.2,76.7,174.6c47.8,46.4,110.7,72,177,72c2,0,3.4,1.3,3.4,3.4
					s-1.3,3.4-3.4,3.4c-68.3,0-132.9-26.2-181.7-74c-49.1-47.4-77.1-111.4-78.7-179.3C248.2,392.9,249.6,391.2,251.6,391.2
					L251.6,391.2z"/>
				<g>
					<polygon points="225.3,418.2 230.4,422.5 251.9,397.3 275.5,420.2 280.2,415.5 251.2,387.2 					"/>
				</g>
			</g>
		</g>
		<g>
			<g>
				<path d="M504.6,123.1c0,1.7-1.3,3.4-3.4,3.4c-66.3,1.7-128.2,28.9-174.6,76.7c-46.1,47.4-71.7,110.4-71.7,177
					c0,2-1.3,3.4-3.4,3.4s-3.4-1.3-3.4-3.4c0-68.3,26.2-132.9,74-181.7c47.4-49.1,111-77.1,179-78.7
					C503.3,119.7,504.6,121.1,504.6,123.1L504.6,123.1z"/>
				<g>
					<polygon points="477.7,96.8 473.3,101.9 498.9,123.4 475.7,147 480.4,151.7 508.6,122.7 					"/>
				</g>
			</g>
		</g>
	</g>
	<g id="title">
		<path id="path14" d="M352.1,412.3v-43.9c0-5.5,1.9-9.5,5.7-12c3.9-2.5,9.2-3.8,16-3.8c6.8,0,12,1.8,15.6,5.3
			c3.5-3.5,8.7-5.3,15.5-5.3c14.5,0,21.8,5.3,21.8,15.8v43.9c0,1.5-1.3,2.3-4,2.3c-2.7,0-4-0.8-4-2.3v-44.9c0-5.2-4.2-7.8-12.7-7.8
			c-8.4,0-12.6,2.7-12.6,8v44.7c0,1.5-1.3,2.3-4,2.3c-2.7,0-4-0.8-4-2.3v-44.9c0-5.2-4.2-7.8-12.7-7.8c-8.4,0-12.6,2.6-12.6,7.8
			v44.9c0,1.5-1.3,2.3-4,2.3C353.4,414.6,352.1,413.8,352.1,412.3L352.1,412.3z"/>
		<path id="path16" d="M451.4,412.3v-43.9c0-5.5,1.9-9.5,5.7-12c3.9-2.5,9.2-3.8,16-3.8s12,1.8,15.6,5.3c3.5-3.5,8.7-5.3,15.5-5.3
			c14.5,0,21.8,5.3,21.8,15.8v43.9c0,1.5-1.3,2.3-4,2.3s-4-0.8-4-2.3v-44.9c0-5.2-4.2-7.8-12.7-7.8c-8.4,0-12.6,2.7-12.6,8v44.7
			c0,1.5-1.3,2.3-4,2.3c-2.7,0-4-0.8-4-2.3v-44.9c0-5.2-4.2-7.8-12.7-7.8c-8.4,0-12.6,2.6-12.6,7.8v44.9c0,1.5-1.3,2.3-4,2.3
			C452.8,414.6,451.4,413.8,451.4,412.3L451.4,412.3z"/>
		<path id="path18" d="M558.8,336.5v75.8c0,1.5-1.3,2.3-4,2.3c-2.7,0-4-0.8-4-2.3v-75.8c0-1.5,1.3-2.3,4-2.3
			C557.5,334.2,558.8,334.9,558.8,336.5z M593.6,412.8c0,1.2-1.2,1.8-3.5,1.8c-2.3,0-3.7-0.8-4.2-2.3L580,392
			c-0.7-2.3-1.5-3.8-2.6-4.4c-1-0.7-3.3-1-6.9-1h-6.3c-1.3,0-2-1.2-2-3.5s0.7-3.5,2-3.5h3.8c2.8-0.1,4.6-0.4,5.5-1
			c0.9-0.7,1.7-2.1,2.5-4.4l6.7-18.3c0.5-1.5,1.9-2.3,4.2-2.3c2.3,0,3.5,0.6,3.5,1.8c0,0.1-0.3,1.1-1,3.1l-6.5,18.5
			c-0.6,1.7-1.4,2.9-2.5,3.8c3.1,1.1,5.2,3.9,6.5,8.4l6,20.9C593.3,411.8,593.6,412.7,593.6,412.8L593.6,412.8z"/>
		<path id="path20" d="M621.7,355.9v46.5c0,2.1,0.5,4.1,1.5,6c1,1.8,1.5,2.7,1.5,2.8c0,0.8-0.6,1.7-1.9,2.6
			c-1.3,0.9-2.3,1.3-3.2,1.3c-1.4,0-2.7-1.2-4-3.6c-1.3-2.5-1.9-5.2-1.9-8.1v-47.5c0-1.5,1.3-2.3,4-2.3S621.7,354.4,621.7,355.9
			L621.7,355.9z M622,334.7v8.7c0,1.7-1.5,2.5-4.4,2.5c-2.9,0-4.3-0.8-4.3-2.5v-8.7c0-1.7,1.4-2.5,4.3-2.5
			C620.5,332.2,622,333,622,334.7z"/>
		<path id="path22" d="M658.5,342.5v11.7H669c1.3,0,2,1.2,2,3.5s-0.7,3.5-2,3.5h-10.5v41.3c0,2.1,0.5,4.1,1.5,6
			c1,1.8,1.5,2.7,1.5,2.8c0,0.8-0.6,1.7-1.9,2.6c-1.3,0.9-2.3,1.3-3.2,1.3c-1.4,0-2.7-1.2-4-3.6c-1.3-2.5-1.9-5.2-1.9-8.1v-42.3h-8
			c-1.3,0-2-1.2-2-3.5s0.7-3.5,2-3.5h8v-11.7c0-1.5,1.3-2.3,4-2.3S658.5,340.9,658.5,342.5L658.5,342.5z"/>
	</g>
	<g id="tagline">
	</g>
</g>
</svg>
